# xmcd
# Track frame offsets:
# 150
# 11970
# 22835
# 33210
# 51837
# 65605
# 79127
# 95990
# 109347
# 118262
# 133392
# 152400
# 165875
# 178867
#
# Disc length: 2553 seconds
# Revision: 3
# Processed by: cddbd v1.5.1PL0 Copyright (c) Steve Scherf et al.
# Submitted via: VisiTrax 2.9.9.209 - For more info visit www.synapsa.com
#
DISCID=bc09f70e
DTITLE=Dale Watson - I Hate These Songs
DYEAR=1997
DGENRE=Country
TTITLE0=Jack's Truck Stop and Cafe
TTITLE1=Wine Don't Lie
TTITLE2=Hair Of The Dog
TTITLE3=I Hate These Songs
TTITLE4=That's Pride
TTITLE5=I Won't Say Goodbye
TTITLE6=Leave Me Alone
TTITLE7=I Think Of You
TTITLE8=Take A Look At Your Neighbor
TTITLE9=Life Is Messy
TTITLE10=Ball and Chain
TTITLE11=Count On You
TTITLE12=Pity Party
TTITLE13=Hey Driver
EXTD=
EXTT0=
EXTT1=
EXTT2=
EXTT3=
EXTT4=
EXTT5=
EXTT6=
EXTT7=
EXTT8=
EXTT9=
EXTT10=
EXTT11=
EXTT12=
EXTT13=
PLAYORDER=
